<?xml version="1.0" standalone="no"?><!DOCTYPE svg PUBLIC "-//W3C//DTD SVG 1.1//EN" "http://www.w3.org/Graphics/SVG/1.1/DTD/svg11.dtd"><svg t="1762770324386" class="icon" viewBox="0 0 1024 1024" version="1.1" xmlns="http://www.w3.org/2000/svg" p-id="15486" xmlns:xlink="http://www.w3.org/1999/xlink" width="48" height="48"><path d="M128 0h768a128 128 0 0 1 128 128v768a128 128 0 0 1-128 128H128a128 128 0 0 1-128-128V128a128 128 0 0 1 128-128z" fill="#635BFF" p-id="15487"></path><path d="M469.76 242.773333c68.949333-9.258667 135.722667-11.434667 222.08 24.618667v148.48c-49.152-25.173333-105.6-38.954667-151.338667-38.954667-3.370667 0-64.298667-3.84-59.477333 33.536 5.717333 44.501333 80.213333 32.768 178.005333 96.597334 68.181333 44.501333 70.314667 119.722667 43.605334 194.944-21.930667 61.568-125.44 107.264-190.634667 107.264-66.986667 0-128.597333-12.8-184.917333-38.4v-150.357334c52.565333 21.76 88.32 34.773333 107.392 39.082667 40.277333 9.045333 51.285333 9.472 73.429333 9.472 28.416 0 44.586667-25.088 44.928-29.994667 3.413333-48.170667-88.32-59.690667-144.554667-86.656-67.882667-32.597333-93.44-75.605333-90.922666-146.048 3.072-85.290667 59.946667-151.168 152.405333-163.584z" fill="#FFFFFF" p-id="15488"></path></svg>