<svg xmlns="http://www.w3.org/2000/svg" width="60" height="61" viewBox="0 0 60 61" fill="none"><rect y="0.361145" width="60" height="60" rx="12" fill="url(#paint0_linear_142_20322)"></rect><path d="M29.9998 24.4401C28.8288 24.4401 27.684 24.7874 26.7103 25.438C25.7366 26.0886 24.9776 27.0133 24.5295 28.0953C24.0813 29.1772 23.9641 30.3677 24.1925 31.5163C24.421 32.6649 24.9849 33.7199 25.813 34.548C26.6411 35.376 27.6961 35.94 28.8447 36.1684C29.9933 36.3969 31.1838 36.2796 32.2657 35.8315C33.3476 35.3833 34.2724 34.6244 34.923 33.6507C35.5736 32.677 35.9209 31.5322 35.9209 30.3612C35.9192 28.7913 35.2949 27.2862 34.1848 26.1761C33.0748 25.0661 31.5697 24.4417 29.9998 24.4401ZM29.9998 34.3085C29.2191 34.3085 28.4559 34.077 27.8068 33.6433C27.1576 33.2095 26.6517 32.593 26.3529 31.8717C26.0542 31.1505 25.976 30.3568 26.1283 29.5911C26.2806 28.8253 26.6566 28.122 27.2086 27.5699C27.7607 27.0179 28.464 26.6419 29.2297 26.4896C29.9954 26.3373 30.7891 26.4155 31.5104 26.7143C32.2317 27.013 32.8482 27.519 33.2819 28.1681C33.7157 28.8173 33.9472 29.5804 33.9472 30.3612C33.9472 31.4081 33.5313 32.4121 32.791 33.1524C32.0508 33.8926 31.0467 34.3085 29.9998 34.3085ZM40.8551 30.6276C40.86 30.45 40.86 30.2723 40.8551 30.0947L42.6955 27.7954C42.7921 27.6746 42.8588 27.5329 42.8906 27.3817C42.9223 27.2304 42.918 27.0738 42.8781 26.9245C42.5764 25.7903 42.1251 24.7014 41.536 23.6864C41.4589 23.5536 41.3518 23.4406 41.2233 23.3564C41.0948 23.2723 40.9485 23.2192 40.7959 23.2016L37.8699 22.876C37.7482 22.7477 37.6248 22.6243 37.4998 22.5059L37.1544 19.5725C37.1367 19.4198 37.0835 19.2734 36.9991 19.1449C36.9147 19.0164 36.8015 18.9094 36.6684 18.8324C35.653 18.2444 34.5642 17.7935 33.4303 17.4915C33.2809 17.4518 33.1243 17.4477 32.973 17.4796C32.8217 17.5116 32.6801 17.5786 32.5594 17.6753L30.2663 19.5059C30.0886 19.5059 29.911 19.5059 29.7334 19.5059L27.434 17.6691C27.3133 17.5726 27.1716 17.5058 27.0203 17.4741C26.8691 17.4424 26.7125 17.4467 26.5631 17.4866C25.4292 17.7888 24.3404 18.2401 23.3251 18.8287C23.1922 18.9058 23.0792 19.0129 22.9951 19.1414C22.9109 19.2699 22.8579 19.4162 22.8403 19.5688L22.5146 22.4997C22.3863 22.6223 22.263 22.7456 22.1446 22.8698L19.2112 23.2065C19.0585 23.2243 18.912 23.2775 18.7835 23.3619C18.655 23.4463 18.548 23.5595 18.471 23.6926C17.8831 24.708 17.4322 25.7968 17.1302 26.9306C17.0904 27.0801 17.0864 27.2367 17.1183 27.388C17.1502 27.5393 17.2173 27.6809 17.314 27.8015L19.1446 30.0947C19.1446 30.2723 19.1446 30.45 19.1446 30.6276L17.3078 32.9269C17.2113 33.0477 17.1445 33.1894 17.1128 33.3406C17.0811 33.4919 17.0853 33.6485 17.1252 33.7978C17.427 34.932 17.8783 36.0209 18.4673 37.0359C18.5445 37.1687 18.6515 37.2817 18.78 37.3659C18.9085 37.4501 19.0549 37.5031 19.2075 37.5207L22.1335 37.8463C22.256 37.9746 22.3793 38.098 22.5035 38.2164L22.8452 41.1498C22.863 41.3025 22.9162 41.4489 23.0006 41.5774C23.0849 41.7059 23.1982 41.8129 23.3312 41.8899C24.3467 42.4779 25.4355 42.9288 26.5693 43.2308C26.7187 43.2705 26.8754 43.2746 27.0267 43.2427C27.1779 43.2107 27.3196 43.1437 27.4402 43.047L29.7334 41.2164C29.911 41.2214 30.0886 41.2214 30.2663 41.2164L32.5656 43.0569C32.6863 43.1534 32.828 43.2202 32.9793 43.2519C33.1306 43.2836 33.2872 43.2793 33.4365 43.2394C34.5706 42.9377 35.6595 42.4864 36.6746 41.8973C36.8074 41.8202 36.9204 41.7131 37.0046 41.5846C37.0887 41.4562 37.1417 41.3098 37.1594 41.1572L37.485 38.2312C37.6133 38.1095 37.7367 37.9862 37.8551 37.8612L40.7885 37.5158C40.9412 37.498 41.0876 37.4448 41.2161 37.3604C41.3446 37.276 41.4516 37.1628 41.5286 37.0297C42.1166 36.0143 42.5675 34.9255 42.8695 33.7917C42.9092 33.6422 42.9133 33.4856 42.8813 33.3343C42.8494 33.183 42.7824 33.0414 42.6857 32.9208L40.8551 30.6276ZM38.8691 29.8258C38.89 30.1824 38.89 30.5399 38.8691 30.8965C38.8544 31.1407 38.9309 31.3816 39.0837 31.5725L40.8341 33.7596C40.6333 34.3979 40.3761 35.0171 40.0656 35.6099L37.2778 35.9257C37.035 35.9527 36.8108 36.0687 36.6487 36.2514C36.4112 36.5184 36.1583 36.7713 35.8913 37.0088C35.7086 37.1709 35.5926 37.3951 35.5656 37.6379L35.256 40.4232C34.6633 40.7339 34.044 40.991 33.4057 41.1917L31.2173 39.4413C31.0422 39.3014 30.8247 39.2253 30.6006 39.2255H30.5414C30.1848 39.2464 29.8272 39.2464 29.4706 39.2255C29.2265 39.2108 28.9856 39.2873 28.7946 39.4401L26.6014 41.1917C25.9631 40.9909 25.3439 40.7337 24.7511 40.4232L24.4353 37.6391C24.4083 37.3963 24.2923 37.1722 24.1096 37.01C23.8426 36.7726 23.5897 36.5197 23.3522 36.2526C23.19 36.0699 22.9659 35.9539 22.7231 35.9269L19.9377 35.6161C19.6271 35.0234 19.3699 34.4041 19.1692 33.7658L20.9196 31.5774C21.0725 31.3865 21.149 31.1456 21.1343 30.9014C21.1133 30.5448 21.1133 30.1873 21.1343 29.8307C21.149 29.5866 21.0725 29.3457 20.9196 29.1547L19.1692 26.9627C19.3701 26.3244 19.6273 25.7052 19.9377 25.1124L22.7219 24.7966C22.9646 24.7696 23.1888 24.6536 23.351 24.4709C23.5884 24.2039 23.8413 23.951 24.1084 23.7135C24.2918 23.5513 24.4083 23.3266 24.4353 23.0832L24.7449 20.2991C25.3376 19.9884 25.9568 19.7313 26.5952 19.5306L28.7835 21.281C28.9745 21.4338 29.2154 21.5103 29.4595 21.4956C29.8161 21.4746 30.1737 21.4746 30.5303 21.4956C30.7744 21.5103 31.0153 21.4338 31.2062 21.281L33.3983 19.5306C34.0366 19.7314 34.6558 19.9886 35.2486 20.2991L35.5644 23.0832C35.5913 23.326 35.7074 23.5501 35.89 23.7123C36.1571 23.9498 36.41 24.2027 36.6474 24.4697C36.8096 24.6524 37.0338 24.7684 37.2766 24.7954L40.0619 25.105C40.3725 25.6977 40.6297 26.3169 40.8304 26.9553L39.08 29.1436C38.9257 29.3362 38.8491 29.5796 38.8654 29.8258H38.8691Z" fill="white"></path><defs><linearGradient id="paint0_linear_142_20322" x1="7.89474" y1="0.361145" x2="30" y2="60.3611" gradientUnits="userSpaceOnUse"><stop stop-color="#7EF4C2"></stop><stop offset="1" stop-color="#3CD09C"></stop></linearGradient></defs></svg>