<svg xmlns="http://www.w3.org/2000/svg" width="60" height="61" viewBox="0 0 60 61" fill="none"><rect y="0.361145" width="60" height="60" rx="12" fill="url(#paint0_linear_142_20313)"></rect><path d="M42.8288 40.2296C42.8288 40.4913 42.7248 40.7423 42.5398 40.9274C42.3547 41.1124 42.1037 41.2164 41.842 41.2164H18.1577C17.896 41.2164 17.645 41.1124 17.4599 40.9274C17.2749 40.7423 17.1709 40.4913 17.1709 40.2296V20.4927C17.1709 20.231 17.2749 19.98 17.4599 19.7949C17.645 19.6099 17.896 19.5059 18.1577 19.5059C18.4195 19.5059 18.6705 19.6099 18.8555 19.7949C19.0406 19.98 19.1446 20.231 19.1446 20.4927V33.9002L25.3543 27.6893C25.4459 27.5975 25.5548 27.5247 25.6746 27.4751C25.7944 27.4254 25.9228 27.3999 26.0525 27.3999C26.1822 27.3999 26.3106 27.4254 26.4304 27.4751C26.5502 27.5247 26.659 27.5975 26.7507 27.6893L29.9998 30.9397L36.4994 24.4401H33.9472C33.6855 24.4401 33.4345 24.3361 33.2494 24.1511C33.0643 23.966 32.9604 23.715 32.9604 23.4533C32.9604 23.1915 33.0643 22.9405 33.2494 22.7555C33.4345 22.5704 33.6855 22.4664 33.9472 22.4664H38.8814C39.1432 22.4664 39.3942 22.5704 39.5792 22.7555C39.7643 22.9405 39.8683 23.1915 39.8683 23.4533V28.3875C39.8683 28.6492 39.7643 28.9002 39.5792 29.0853C39.3942 29.2703 39.1432 29.3743 38.8814 29.3743C38.6197 29.3743 38.3687 29.2703 38.1836 29.0853C37.9986 28.9002 37.8946 28.6492 37.8946 28.3875V25.8352L30.698 33.033C30.6064 33.1248 30.4975 33.1976 30.3777 33.2472C30.2579 33.2969 30.1295 33.3225 29.9998 33.3225C29.8702 33.3225 29.7417 33.2969 29.6219 33.2472C29.5021 33.1976 29.3933 33.1248 29.3017 33.033L26.0525 29.7826L19.1446 36.6905V39.2427H41.842C42.1037 39.2427 42.3547 39.3467 42.5398 39.5318C42.7248 39.7168 42.8288 39.9678 42.8288 40.2296Z" fill="white"></path><defs><linearGradient id="paint0_linear_142_20313" x1="7.89474" y1="0.361145" x2="30" y2="60.3611" gradientUnits="userSpaceOnUse"><stop stop-color="#FFA47C"></stop><stop offset="1" stop-color="#FC7858"></stop></linearGradient></defs></svg>