<svg xmlns="http://www.w3.org/2000/svg" width="60" height="61" viewBox="0 0 60 61" fill="none"><rect y="0.361145" width="60" height="60" rx="12" fill="url(#paint0_linear_142_45)"></rect><path d="M42.8287 31.4294C42.6191 33.8669 41.7176 36.1938 40.2304 38.1363C38.7432 40.0789 36.7322 41.5563 34.4339 42.3947C32.1356 43.2331 29.6456 43.3977 27.2569 42.869C24.8682 42.3404 22.6802 41.1405 20.9503 39.4106C19.2204 37.6807 18.0206 35.4927 17.4919 33.104C16.9633 30.7154 17.1278 28.2254 17.9663 25.9271C18.8047 23.6288 20.2821 21.6177 22.2246 20.1305C24.1672 18.6433 26.4941 17.7419 28.9315 17.5322C29.0611 17.5215 29.1915 17.5365 29.3154 17.5762C29.4392 17.6159 29.554 17.6796 29.6532 17.7637C29.7524 17.8478 29.834 17.9506 29.8935 18.0662C29.953 18.1818 29.9891 18.3081 29.9998 18.4376C30.0105 18.5672 29.9955 18.6977 29.9558 18.8215C29.9161 18.9453 29.8524 19.0601 29.7683 19.1593C29.6842 19.2585 29.5814 19.3402 29.4658 19.3996C29.3502 19.4591 29.2239 19.4952 29.0944 19.5059C27.0313 19.6832 25.0619 20.446 23.4177 21.7045C21.7735 22.9631 20.523 24.6652 19.8133 26.6103C19.1036 28.5555 18.9642 30.6629 19.4116 32.6847C19.8589 34.7064 20.8744 36.5582 22.3386 38.0224C23.8027 39.4865 25.6546 40.502 27.6763 40.9494C29.698 41.3968 31.8054 41.2574 33.7506 40.5477C35.6958 39.838 37.3978 38.5875 38.6564 36.9433C39.915 35.2991 40.6778 33.3296 40.855 31.2666C40.8766 31.0049 41.0013 30.7624 41.2017 30.5926C41.402 30.4228 41.6616 30.3396 41.9233 30.3612C42.185 30.3828 42.4275 30.5074 42.5973 30.7078C42.7671 30.9081 42.8503 31.1677 42.8287 31.4294ZM29.0129 23.4533V30.3612C29.0129 30.6229 29.1169 30.8739 29.302 31.059C29.487 31.244 29.7381 31.348 29.9998 31.348H36.9077C37.1694 31.348 37.4204 31.244 37.6055 31.059C37.7905 30.8739 37.8945 30.6229 37.8945 30.3612C37.8945 30.0994 37.7905 29.8484 37.6055 29.6634C37.4204 29.4783 37.1694 29.3743 36.9077 29.3743H30.9866V23.4533C30.9866 23.1915 30.8827 22.9405 30.6976 22.7555C30.5125 22.5704 30.2615 22.4664 29.9998 22.4664C29.7381 22.4664 29.487 22.5704 29.302 22.7555C29.1169 22.9405 29.0129 23.1915 29.0129 23.4533ZM33.9471 20.4927C34.2399 20.4927 34.5261 20.4059 34.7695 20.2433C35.013 20.0806 35.2027 19.8494 35.3147 19.579C35.4268 19.3085 35.4561 19.0108 35.399 18.7237C35.3419 18.4366 35.2009 18.1728 34.9939 17.9658C34.7868 17.7588 34.5231 17.6178 34.2359 17.5607C33.9488 17.5035 33.6512 17.5329 33.3807 17.6449C33.1102 17.7569 32.879 17.9467 32.7164 18.1901C32.5537 18.4335 32.4669 18.7197 32.4669 19.0125C32.4669 19.4051 32.6228 19.7816 32.9004 20.0592C33.178 20.3368 33.5546 20.4927 33.9471 20.4927ZM38.3879 23.4533C38.6807 23.4533 38.9669 23.3665 39.2103 23.2038C39.4538 23.0412 39.6435 22.81 39.7555 22.5395C39.8676 22.269 39.8969 21.9714 39.8398 21.6842C39.7826 21.3971 39.6417 21.1333 39.4346 20.9263C39.2276 20.7193 38.9639 20.5783 38.6767 20.5212C38.3896 20.4641 38.0919 20.4934 37.8215 20.6054C37.551 20.7175 37.3198 20.9072 37.1571 21.1506C36.9945 21.394 36.9077 21.6802 36.9077 21.973C36.9077 22.3656 37.0636 22.7421 37.3412 23.0197C37.6188 23.2973 37.9953 23.4533 38.3879 23.4533ZM41.3485 27.8941C41.6412 27.8941 41.9274 27.8072 42.1709 27.6446C42.4143 27.4819 42.604 27.2508 42.716 26.9803C42.8281 26.7098 42.8574 26.4122 42.8003 26.125C42.7432 25.8379 42.6022 25.5741 42.3952 25.3671C42.1881 25.1601 41.9244 25.0191 41.6372 24.962C41.3501 24.9049 41.0525 24.9342 40.782 25.0462C40.5115 25.1583 40.2803 25.348 40.1177 25.5914C39.955 25.8348 39.8682 26.121 39.8682 26.4138C39.8682 26.8064 40.0242 27.1829 40.3018 27.4605C40.5794 27.7381 40.9559 27.8941 41.3485 27.8941Z" fill="white"></path><defs><linearGradient id="paint0_linear_142_45" x1="7.89474" y1="0.361145" x2="30" y2="60.3611" gradientUnits="userSpaceOnUse"><stop stop-color="#A2DCFD"></stop><stop offset="1" stop-color="#0A96FF"></stop></linearGradient></defs></svg>