<?xml version="1.0" standalone="no"?><!DOCTYPE svg PUBLIC "-//W3C//DTD SVG 1.1//EN" "http://www.w3.org/Graphics/SVG/1.1/DTD/svg11.dtd"><svg t="1760695881712" class="icon" viewBox="0 0 1024 1024" version="1.1" xmlns="http://www.w3.org/2000/svg" p-id="30079" xmlns:xlink="http://www.w3.org/1999/xlink" width="48" height="48"><path d="M964.48 333.184c-24.96-54.656-60.544-103.808-105.856-145.792C813.184 145.28 760.32 112.128 702.592 89.6c-122.496-47.616-258.56-47.616-381.056 0-57.728 22.528-110.72 55.68-156.16 97.792-45.312 42.112-80.896 91.136-105.856 145.792-51.968 113.92-51.968 244.864 0 358.784 24.96 54.656 60.544 103.808 105.856 145.792 45.44 42.112 98.432 75.264 156.16 97.792 60.672 23.808 125.312 35.84 190.592 35.712h393.216c18.048 0 32.768-14.72 32.768-32.768V741.632c42.88-69.376 65.536-148.352 65.536-228.992 0-61.952-13.312-123.136-39.168-179.456z m-649.088-17.152h393.216c18.048 0 32.768 14.72 32.768 32.768s-14.72 32.768-32.768 32.768H315.392c-18.048 0-32.768-14.72-32.768-32.768 0-18.176 14.72-32.768 32.768-32.768z m393.216 393.216H315.392c-18.048 0-32.768-14.72-32.768-32.768s14.72-32.768 32.768-32.768h393.216c18.048 0 32.768 14.72 32.768 32.768s-14.72 32.768-32.768 32.768z m65.536-163.84H249.856c-18.048 0-32.768-14.72-32.768-32.768s14.72-32.768 32.768-32.768h524.288c18.048 0 32.768 14.72 32.768 32.768s-14.72 32.768-32.768 32.768z" p-id="30080" fill="#FF7B29"></path></svg>