<svg width="22" height="22" viewBox="0 0 22 22" fill="none" xmlns="http://www.w3.org/2000/svg">
<path fill-rule="evenodd" clip-rule="evenodd" d="M21.6666 10.9852C21.6666 11.7066 21.5931 12.4269 21.4489 13.1291C21.3082 13.8146 21.0999 14.4876 20.827 15.131C20.5603 15.763 20.2296 16.372 19.8431 16.9399C19.4624 17.5043 19.0238 18.0338 18.542 18.5164C18.0591 18.997 17.5279 19.4343 16.9638 19.8167C16.394 20.2005 15.7841 20.5308 15.1517 20.7987C14.5074 21.0701 13.8329 21.2782 13.148 21.4186C12.4448 21.5632 11.7218 21.637 10.9994 21.637C10.2765 21.637 9.55354 21.5632 8.85142 21.4186C8.16546 21.2782 7.49094 21.0701 6.84715 20.7987C6.21484 20.5308 5.60437 20.2005 5.03456 19.8167C4.47047 19.4344 3.93919 18.997 3.45739 18.5164C2.97509 18.0338 2.5365 17.5043 2.15524 16.9399C1.77084 16.372 1.43955 15.7629 1.17185 15.131C0.898887 14.4876 0.690051 13.8146 0.548893 13.1291C0.40619 12.4269 0.333252 11.7066 0.333252 10.9852C0.333252 10.2633 0.406148 9.5414 0.548935 8.84075C0.690093 8.15524 0.898928 7.48119 1.17189 6.83887C1.4396 6.20643 1.77089 5.59688 2.15528 5.02889C2.53655 4.46408 2.97513 3.93561 3.45744 3.45242C3.93924 2.97182 4.47051 2.53549 5.0346 2.15373C5.60441 1.76831 6.21488 1.43808 6.84719 1.16968C7.49098 0.897607 8.16546 0.689072 8.85146 0.549702C9.55358 0.406163 10.2765 0.33333 10.9995 0.33333C11.7219 0.33333 12.4448 0.406163 13.148 0.549702C13.8329 0.689114 14.5074 0.897648 15.1518 1.16968C15.7841 1.43804 16.394 1.76831 16.9638 2.15373C17.5279 2.53549 18.0592 2.97182 18.542 3.45242C19.0238 3.93561 19.4624 4.46408 19.8431 5.02889C20.2296 5.59688 20.5603 6.20647 20.827 6.83887C21.0999 7.48119 21.3082 8.15524 21.4489 8.84075C21.5931 9.5414 21.6666 10.2633 21.6666 10.9852ZM7.11273 2.75756C4.57247 3.9554 2.67654 6.29276 2.08536 9.10968C2.32551 9.11176 6.12154 9.15962 10.4952 7.99922C8.91856 5.20206 7.2341 2.91935 7.11273 2.75756ZM11.2499 9.39993C6.55958 10.8021 2.0588 10.7012 1.89735 10.695C1.89472 10.7928 1.89005 10.8874 1.89005 10.9852C1.89005 13.322 2.7729 15.4524 4.22402 17.0632C4.22089 17.0585 6.71376 12.6423 11.6296 11.0549C11.7484 11.0154 11.8692 10.98 11.989 10.9457C11.7604 10.4287 11.5108 9.91068 11.2499 9.39993ZM17.0154 4.15823C15.4116 2.7461 13.3058 1.88953 10.9994 1.88953C10.2593 1.88953 9.54098 1.979 8.85294 2.14439C8.98938 2.32749 10.7004 4.5941 12.2583 7.4505C15.6955 6.16378 16.9929 4.1915 17.0154 4.15823ZM12.61 12.453C12.5897 12.4597 12.5694 12.4655 12.5495 12.4727C7.17487 14.3437 5.4197 18.1143 5.40071 18.1554C6.94717 19.3563 8.88686 20.0809 10.9995 20.0809C12.261 20.0809 13.4626 19.8244 14.5559 19.36C14.421 18.5653 13.8918 15.7796 12.61 12.453ZM16.0898 18.5289C18.1352 17.1506 19.5878 14.962 19.9931 12.4269C19.8056 12.3666 17.257 11.5609 14.3167 12.0316C15.5116 15.3104 15.9971 17.9807 16.0898 18.5289ZM12.9595 8.80593C13.1709 9.23971 13.3756 9.68121 13.5647 10.1249C13.6319 10.2841 13.6975 10.4401 13.7616 10.5961C16.8909 10.2029 19.9739 10.8645 20.1057 10.8915C20.0848 8.73518 19.3124 6.75615 18.0342 5.20677C18.017 5.23116 16.556 7.33919 12.9595 8.80593Z" fill="#42BDEC"/>
</svg>
