<?xml version="1.0" standalone="no"?><!DOCTYPE svg PUBLIC "-//W3C//DTD SVG 1.1//EN" "http://www.w3.org/Graphics/SVG/1.1/DTD/svg11.dtd"><svg t="1762833393031" class="icon" viewBox="0 0 1024 1024" version="1.1" xmlns="http://www.w3.org/2000/svg" p-id="6894" xmlns:xlink="http://www.w3.org/1999/xlink" width="48" height="48"><path d="M515.6 374.6l228 105.4c11.4 5.2 18.6 16.6 18.6 29.2 0 12.4-7.2 23.8-18.6 29l-228 105.4-105.4 228c-5.2 11.4-16.6 18.6-29 18.6-12.6 0-24-7.2-29.2-18.6l-105.4-228L18.584 538.2C7.254 533 0 521.6 0 509.2c0-12.6 7.254-24 18.584-29.2L246.6 374.6 352 146.58c5.2-11.32 16.6-18.58 29.2-18.58 12.4 0 23.8 7.26 29 18.58l105.4 228.02z" p-id="6895" data-spm-anchor-id="a313x.search_index.0.i7.672b3a81QDJQVY" class="" fill="#21C45D"></path><path d="M655 170.38L768 128l42.4-113.018C813.8 5.97 822.4 0 832 0c9.6 0 18.2 5.97 21.6 14.982L896 128l113 42.38c9 3.38 15 12 15 21.62 0 9.6-6 18.2-15 21.6L896 256l-42.4 113c-3.4 9-12 15-21.6 15-9.6 0-18.2-6-21.6-15L768 256l-113-42.4c-10.8-3.4-15-12-15-21.6 0-9.62 4.2-18.24 15-21.62z m0 640.02L768 768l42.4-113c3.4-10.8 12-15 21.6-15 9.6 0 18.2 4.2 21.6 15L896 768l113 42.4c9 3.4 15 12 15 21.6 0 9.6-6 18.2-15 21.6L896 896l-42.4 113c-3.4 9-12 15-21.6 15-9.6 0-18.2-6-21.6-15L768 896l-113-42.4c-10.8-3.4-15-12-15-21.6 0-9.6 4.2-18.2 15-21.6z" opacity=".4" p-id="6896" data-spm-anchor-id="a313x.search_index.0.i8.672b3a81QDJQVY" class="selected" fill="#21C45D"></path></svg>