<?xml version="1.0" standalone="no"?><!DOCTYPE svg PUBLIC "-//W3C//DTD SVG 1.1//EN" "http://www.w3.org/Graphics/SVG/1.1/DTD/svg11.dtd"><svg t="1762587118805" class="icon" viewBox="0 0 1560 1024" version="1.1" xmlns="http://www.w3.org/2000/svg" p-id="5116" xmlns:xlink="http://www.w3.org/1999/xlink" width="73.125" height="48"><path d="M141.409524 0h1275.123809C1496.990476 0 1560.380952 63.390476 1560.380952 138.971429v746.057142c0 78.019048-63.390476 138.971429-141.409523 138.971429H141.409524C63.390476 1024 0 960.609524 0 885.028571V138.971429C0 63.390476 63.390476 0 141.409524 0z" fill="#FF9933" p-id="5117"></path><path d="M0 885.028571C0 960.609524 63.390476 1024 141.409524 1024h1277.561905c78.019048 0 141.409524-60.952381 141.409523-138.971429V341.333333H0v543.695238z" fill="#138808" p-id="5118"></path><path d="M0 341.333333h1560.380952v341.333334H0z" fill="#FFFFFF" p-id="5119"></path><path d="M780.190476 360.838095c-85.333333 0-151.161905 68.266667-151.161905 151.161905s68.266667 151.161905 151.161905 151.161905 151.161905-68.266667 151.161905-151.161905-65.828571-151.161905-151.161905-151.161905z m138.971429 168.228572c0 2.438095-4.87619 7.314286-7.314286 4.87619-2.438095 7.314286-2.438095 14.628571-4.87619 21.942857 2.438095 2.438095 4.87619 4.87619 2.438095 9.752381-2.438095 2.438095-4.87619 4.87619-9.752381 2.438095-2.438095 7.314286-7.314286 12.190476-9.752381 19.504762 2.438095 2.438095 2.438095 7.314286 2.438095 9.752381-2.438095 2.438095-7.314286 2.438095-9.752381 2.438096l-7.314286 7.314285-7.314285 7.314286c2.438095 2.438095 2.438095 7.314286-2.438095 9.752381-2.438095 2.438095-7.314286 2.438095-9.752381-2.438095-4.87619 4.87619-12.190476 7.314286-19.504762 9.752381 2.438095 2.438095 0 7.314286-2.438096 9.752381s-7.314286 0-9.752381-2.438096c-7.314286 2.438095-14.628571 4.87619-21.942857 4.876191 0 2.438095-2.438095 7.314286-4.87619 7.314286s-7.314286-2.438095-7.314286-4.876191h-19.504762c0 2.438095-4.87619 7.314286-7.314285 4.876191-2.438095 0-7.314286-4.87619-4.876191-7.314286-7.314286-2.438095-14.628571-2.438095-21.942857-4.876191-2.438095 2.438095-4.87619 4.87619-9.752381 2.438096-2.438095-2.438095-4.87619-4.87619-2.438095-9.752381-7.314286-2.438095-12.190476-7.314286-19.504762-9.752381-2.438095 2.438095-7.314286 2.438095-9.752381 2.438095-2.438095-2.438095-2.438095-7.314286-2.438095-9.752381l-7.314286-7.314286-7.314286-7.314285c-2.438095 2.438095-7.314286 2.438095-9.752381-2.438096-2.438095-2.438095-2.438095-7.314286 2.438095-9.752381-4.87619-4.87619-7.314286-12.190476-9.75238-19.504762-2.438095 2.438095-7.314286 0-9.752381-2.438095s0-7.314286 2.438095-9.752381c-2.438095-7.314286-4.87619-14.628571-4.876191-21.942857-2.438095 0-7.314286-2.438095-7.314285-4.87619s2.438095-7.314286 4.87619-7.314286V512v-9.752381c-2.438095 0-7.314286-4.87619-4.87619-7.314286 0-2.438095 4.87619-7.314286 7.314285-4.87619 2.438095-7.314286 2.438095-14.628571 4.876191-21.942857-2.438095-2.438095-4.87619-4.87619-2.438095-9.752381 2.438095-2.438095 4.87619-4.87619 9.752381-2.438095 2.438095-7.314286 7.314286-12.190476 9.75238-19.504762-2.438095-2.438095-2.438095-7.314286-2.438095-9.752381 2.438095-2.438095 7.314286-2.438095 9.752381-2.438096l7.314286-7.314285 7.314286-7.314286c-2.438095-2.438095-2.438095-7.314286 2.438095-9.752381 2.438095-2.438095 7.314286-2.438095 9.752381 2.438095 4.87619-4.87619 12.190476-7.314286 19.504762-9.752381-2.438095-2.438095 0-7.314286 2.438095-9.752381 2.438095-2.438095 7.314286 0 9.752381 2.438096 7.314286-2.438095 14.628571-4.87619 21.942857-4.876191 0-2.438095 2.438095-7.314286 4.876191-7.314286s7.314286 2.438095 7.314285 4.876191h19.504762c0-2.438095 4.87619-7.314286 7.314286-4.876191 2.438095 0 7.314286 4.87619 4.87619 7.314286 7.314286 2.438095 14.628571 2.438095 21.942857 4.876191 2.438095-2.438095 4.87619-4.87619 9.752381-2.438096 2.438095 2.438095 4.87619 4.87619 2.438096 9.752381 7.314286 2.438095 12.190476 7.314286 19.504762 9.752381 2.438095-2.438095 7.314286-2.438095 9.752381-2.438095 2.438095 2.438095 2.438095 7.314286 2.438095 9.752381l7.314285 7.314286 7.314286 7.314285c2.438095-2.438095 7.314286-2.438095 9.752381 2.438096 2.438095 2.438095 2.438095 7.314286-2.438095 9.752381 4.87619 4.87619 7.314286 12.190476 9.752381 19.504762 2.438095-2.438095 7.314286 0 9.752381 2.438095 2.438095 2.438095 0 7.314286-2.438095 9.752381 2.438095 7.314286 4.87619 14.628571 4.87619 21.942857 2.438095 0 7.314286 2.438095 7.314286 4.87619s-2.438095 7.314286-4.876191 7.314286v19.504762c2.438095 2.438095 4.87619 4.87619 4.876191 7.314286z" fill="#000088" p-id="5120"></path><path d="M797.257143 531.504762l-2.438095 2.438095 17.066666 21.942857 36.571429 70.704762-46.32381-65.828571-9.752381-24.380953c-2.438095 0-2.438095 0-4.87619 2.438096l9.752381 24.380952 17.066667 78.019048-24.380953-75.580953-4.87619-26.819047H780.190476l2.438095 26.819047-2.438095 80.457143h9.752381c0-2.438095 2.438095-7.314286 4.876191-7.314286s7.314286 2.438095 7.314285 4.876191c7.314286-2.438095 14.628571-2.438095 21.942857-4.876191-2.438095-2.438095 0-7.314286 2.438096-9.752381s7.314286 0 9.752381 2.438096c7.314286-2.438095 12.190476-7.314286 19.504762-9.752381-2.438095-2.438095-2.438095-7.314286 2.438095-9.752381 2.438095-2.438095 7.314286-2.438095 9.752381 0l7.314285-7.314286-60.95238-53.638095-17.066667-19.504762zM782.628571 485.180952h4.876191l4.87619-26.819047 24.380953-75.580953-17.066667 78.019048-9.752381 24.380952c2.438095 0 2.438095 0 4.876191 2.438096l9.752381-24.380953 43.885714-65.828571-36.571429 70.704762-17.066666 21.942857 2.438095 2.438095 17.066667-21.942857 60.95238-53.638095-7.314285-7.314286c-2.438095 2.438095-7.314286 2.438095-9.752381 0-2.438095-2.438095-2.438095-7.314286-2.438095-9.752381-4.87619-4.87619-12.190476-7.314286-19.504762-9.752381-2.438095 2.438095-4.87619 4.87619-9.752381 2.438095-2.438095-2.438095-4.87619-4.87619-2.438096-9.752381-7.314286-2.438095-14.628571-4.87619-21.942857-4.87619 0 2.438095-4.87619 4.87619-7.314285 4.87619s-7.314286-4.87619-4.876191-7.314285H780.190476l4.876191 80.457143-2.438096 29.257142zM760.685714 529.066667l-2.438095-2.438096-21.942857 17.066667-70.704762 36.571429L731.428571 536.380952l24.380953-9.752381c0-2.438095 0-2.438095-2.438095-4.87619l-24.380953 9.752381-78.019047 17.066667 75.580952-24.380953 26.819048-4.87619v-4.876191l-26.819048 2.438095-80.457143-4.87619v9.752381c2.438095 0 7.314286 2.438095 7.314286 4.87619s-2.438095 7.314286-4.876191 7.314286c2.438095 7.314286 2.438095 14.628571 4.876191 21.942857 2.438095-2.438095 7.314286 0 9.752381 2.438096s0 7.314286-2.438095 9.75238c2.438095 7.314286 7.314286 12.190476 9.75238 19.504762 2.438095-2.438095 7.314286-2.438095 9.752381 2.438096 2.438095 2.438095 2.438095 7.314286 0 9.752381l7.314286 7.314285 53.638095-60.952381 19.504762-17.066666z" fill="#FFFFFF" p-id="5121"></path><path d="M777.752381 538.819048h-4.876191l-4.87619 26.819047-24.380952 75.580953 17.066666-78.019048 9.752381-24.380952c-2.438095 0-2.438095 0-4.87619-2.438096l-9.752381 24.380953-43.885714 65.828571 36.571428-70.704762 17.066667-21.942857-2.438095-2.438095-17.066667 21.942857-60.952381 53.638095 7.314286 7.314286c2.438095-2.438095 7.314286-2.438095 9.752381 0s2.438095 7.314286 2.438095 9.752381c4.87619 4.87619 12.190476 7.314286 19.504762 9.752381 2.438095-2.438095 4.87619-4.87619 9.752381-2.438095 2.438095 2.438095 4.87619 4.87619 2.438095 9.752381 7.314286 2.438095 14.628571 4.87619 21.942857 4.87619 0-2.438095 4.87619-4.87619 7.314286-4.87619 2.438095 0 7.314286 4.87619 4.87619 7.314285h9.752381l-4.87619-80.457143 2.438095-29.257142zM763.12381 492.495238l2.438095-2.438095-17.066667-21.942857-36.571428-70.704762L755.809524 463.238095l9.752381 24.380953c2.438095 0 2.438095 0 4.87619-2.438096l-9.752381-24.380952-17.066666-78.019048 24.380952 75.580953 4.87619 26.819047h4.876191l-2.438095-26.819047 4.87619-80.457143h-9.752381c0 2.438095-2.438095 7.314286-4.87619 7.314286s-7.314286-2.438095-7.314286-4.876191c-7.314286 2.438095-14.628571 2.438095-21.942857 4.876191 2.438095 2.438095 0 7.314286-2.438095 9.752381s-7.314286 0-9.752381-2.438096c-7.314286 2.438095-12.190476 7.314286-19.504762 9.752381 2.438095 2.438095 2.438095 7.314286-2.438095 9.752381-2.438095 2.438095-7.314286 2.438095-9.752381 0l-7.314286 7.314286 60.952381 53.638095 17.066667 19.504762zM906.971429 529.066667c0-2.438095 4.87619-7.314286 7.314285-4.876191v-9.752381l-80.457143 4.876191-26.819047-2.438096v4.876191l26.819047 4.87619 75.580953 24.380953-78.019048-17.066667-24.380952-9.752381c0 2.438095 0 2.438095-2.438095 4.876191l24.380952 9.752381 65.828571 43.885714-70.704762-36.571429-21.942857-17.066666-2.438095 2.438095 21.942857 17.066667 53.638095 60.952381 7.314286-7.314286c-2.438095-2.438095-2.438095-7.314286 0-9.752381s7.314286-2.438095 9.752381-2.438095c4.87619-4.87619 7.314286-12.190476 9.752381-19.504762-2.438095-2.438095-4.87619-4.87619-2.438095-9.752381 2.438095-2.438095 4.87619-4.87619 9.752381-2.438095 2.438095-7.314286 4.87619-14.628571 4.87619-21.942858-7.314286 0-9.752381-4.87619-7.314285-7.314285z" fill="#FFFFFF" p-id="5122"></path><path d="M753.371429 509.561905v-4.876191l-26.819048-4.87619-75.580952-24.380953 78.019047 17.066667 24.380953 9.752381c0-2.438095 0-2.438095 2.438095-4.87619l-24.380953-9.752381-65.828571-43.885715 70.704762 36.571429 21.942857 17.066667 2.438095-2.438096-21.942857-17.066666-53.638095-60.952381-7.314286 7.314285c2.438095 2.438095 2.438095 7.314286 0 9.752381s-7.314286 2.438095-9.752381 2.438096c-4.87619 4.87619-7.314286 12.190476-9.752381 19.504762 2.438095 2.438095 4.87619 4.87619 2.438096 9.75238-2.438095 2.438095-4.87619 4.87619-9.752381 2.438096-2.438095 7.314286-4.87619 14.628571-4.876191 21.942857 2.438095 0 4.87619 4.87619 4.876191 7.314286 0 2.438095-4.87619 7.314286-7.314286 4.87619v9.752381l80.457143-4.87619 29.257143 2.438095zM799.695238 494.933333l2.438095 2.438096 21.942857-17.066667 70.704762-36.571429-65.828571 46.32381-24.380952 9.752381c0 2.438095 0 2.438095 2.438095 4.87619l24.380952-9.752381 78.019048-17.066666-75.580953 24.380952-26.819047 4.876191v4.87619l26.819047-2.438095 80.457143 4.87619v-9.752381c-2.438095 0-7.314286-2.438095-7.314285-4.87619s2.438095-7.314286 4.87619-7.314286c-2.438095-7.314286-2.438095-14.628571-4.87619-21.942857-2.438095 2.438095-7.314286 0-9.752381-2.438095-2.438095-2.438095 0-7.314286 2.438095-9.752381-2.438095-7.314286-7.314286-12.190476-9.752381-19.504762-2.438095 2.438095-7.314286 2.438095-9.752381-2.438095-2.438095-2.438095-2.438095-7.314286 0-9.752381l-7.314286-7.314286-53.638095 60.952381-19.504762 14.628571z" fill="#FFFFFF" p-id="5123"></path><path d="M807.009524 509.561905v-4.876191l-12.190476 2.438096 9.752381-4.876191c0-2.438095 0-2.438095-2.438096-4.87619l-9.752381 4.87619 9.752381-7.314286-2.438095-2.438095-9.752381 7.314286 7.314286-9.752381-2.438095-2.438095-7.314286 9.752381 4.87619-9.752381c-2.438095 0-2.438095 0-4.87619-2.438096l-4.876191 9.752381 2.438096-12.190476H780.190476v14.628572l-2.438095-12.190477h-4.876191l2.438096 12.190477-2.438096-9.752381c-2.438095 0-2.438095 0-4.87619 2.438095l4.87619 9.752381-7.314285-9.752381-2.438095 2.438095 7.314285 9.752381-9.752381-7.314286-2.438095 2.438096 9.752381 7.314285-12.190476-4.87619c0 2.438095 0 2.438095-2.438095 4.87619l9.752381 4.876191-12.190477-2.438095v4.87619l12.190477 2.438095-12.190477 2.438095v4.876191l12.190477-2.438095H755.809524c0 2.438095 0 2.438095 2.438095 4.87619l9.752381-4.87619-9.752381 7.314285 2.438095 2.438096 9.752381-7.314286-7.314285 9.752381 2.438095 2.438095 7.314285-9.752381-4.87619 12.190476c2.438095 0 2.438095 0 4.87619 2.438096l4.876191-9.752381-2.438095 12.190476h4.87619l2.438095-12.190476 2.438096 12.190476h4.87619l-2.438095-12.190476 4.87619 9.752381c2.438095 0 2.438095 0 4.876191-2.438096l-4.876191-9.752381 7.314286 9.752381 2.438095-2.438095-7.314285-9.752381 9.752381 7.314286 2.438095-2.438095-9.752381-7.314286 9.752381 4.87619c0-2.438095 0-2.438095 2.438095-4.87619l-9.752381-4.876191 12.190476 2.438096v-4.876191l-17.066666-2.438095 12.190476-2.438095zM914.285714 521.752381c0 4.87619 0 9.752381-2.438095 12.190476 2.438095 0 7.314286-2.438095 7.314286-4.87619s-2.438095-4.87619-4.876191-7.314286z" fill="#000088" p-id="5124"></path><path d="M906.971429 529.066667c0 2.438095 2.438095 7.314286 4.87619 7.314285 0-4.87619 2.438095-9.752381 2.438095-12.190476-4.87619-2.438095-7.314286 0-7.314285 4.876191zM782.628571 538.819048c-2.438095 0-2.438095 0 0 0H780.190476l-2.438095 26.819047 4.87619 80.457143 4.876191-80.457143-4.876191-26.819047zM777.752381 538.819048c2.438095 0 2.438095 0 0 0h2.438095v-12.190477l-2.438095 12.190477zM899.657143 568.07619c2.438095 2.438095 7.314286 0 9.752381-2.438095 2.438095-2.438095 0-7.314286-2.438095-9.752381-2.438095 4.87619-4.87619 9.752381-7.314286 12.190476z" fill="#000088" p-id="5125"></path><path d="M897.219048 560.761905c-2.438095 2.438095 0 7.314286 2.438095 9.752381 2.438095-4.87619 2.438095-7.314286 4.87619-12.190476-2.438095-2.438095-4.87619 0-7.314285 2.438095zM763.12381 563.2l-17.066667 78.019048 24.380952-75.580953 4.876191-26.819047h-2.438096l-9.75238 24.380952zM772.87619 536.380952h2.438096l2.438095-12.190476-4.876191 12.190476zM882.590476 597.333333c2.438095 2.438095 7.314286 2.438095 9.752381-2.438095 2.438095-2.438095 2.438095-7.314286-2.438095-9.752381-2.438095 7.314286-4.87619 9.752381-7.314286 12.190476z" fill="#000088" p-id="5126"></path><path d="M880.152381 590.019048c-2.438095 2.438095-2.438095 7.314286 0 9.752381 2.438095-2.438095 4.87619-7.314286 7.314286-9.752381 0-4.87619-4.87619-4.87619-7.314286 0zM748.495238 555.885714l-36.571428 70.704762L755.809524 560.761905l9.752381-24.380953s-2.438095 0-2.438095-2.438095l-14.628572 21.942857zM765.561905 533.942857s2.438095 2.438095 0 0l7.314285-9.752381-7.314285 9.752381zM855.771429 621.714286c2.438095 2.438095 7.314286 2.438095 9.752381 2.438095 2.438095-2.438095 2.438095-7.314286 2.438095-9.752381-4.87619 2.438095-7.314286 4.87619-12.190476 7.314286zM858.209524 611.961905c-2.438095 2.438095-2.438095 7.314286-2.438095 9.752381 2.438095-2.438095 7.314286-4.87619 9.752381-7.314286-2.438095-2.438095-4.87619-4.87619-7.314286-2.438095zM763.12381 531.504762c-2.438095 0-2.438095 0 0 0l-21.942858 14.628571-53.638095 60.952381 60.952381-53.638095 14.628572-21.942857zM760.685714 529.066667c0 2.438095 0 2.438095 0 0l9.752381-7.314286-9.752381 7.314286zM824.07619 638.780952c2.438095 2.438095 4.87619 4.87619 9.752381 2.438096 2.438095-2.438095 4.87619-4.87619 2.438096-9.752381-2.438095 2.438095-7.314286 4.87619-12.190477 7.314285z" fill="#000088" p-id="5127"></path><path d="M828.952381 629.028571c-2.438095 2.438095-4.87619 4.87619-2.438095 9.752381 4.87619-2.438095 7.314286-2.438095 12.190476-4.87619-2.438095-4.87619-7.314286-7.314286-9.752381-4.876191zM731.428571 533.942857l-65.828571 43.885714 70.704762-36.571428 21.942857-17.066667s0-2.438095-2.438095-2.438095l-24.380953 12.190476z" fill="#000088" p-id="5128"></path><path d="M755.809524 524.190476s2.438095 2.438095 0 0l9.752381-4.87619-9.752381 4.87619zM789.942857 646.095238c0 2.438095 4.87619 7.314286 7.314286 4.876191 2.438095 0 7.314286-4.87619 4.87619-7.314286-2.438095 0-7.314286 0-12.190476 2.438095z" fill="#000088" p-id="5129"></path><path d="M797.257143 638.780952c-2.438095 0-7.314286 4.87619-4.876191 7.314286 4.87619 0 9.752381 0 12.190477-2.438095 0-4.87619-4.87619-7.314286-7.314286-4.876191zM726.552381 521.752381l-75.580952 24.380952 78.019047-17.066666 24.380953-9.752381v-2.438096l-26.819048 4.876191zM753.371429 516.87619v2.438096l9.752381-4.876191-9.752381 2.438095zM755.809524 643.657143c0 2.438095 2.438095 7.314286 4.87619 7.314286s7.314286-2.438095 7.314286-4.876191c-2.438095-2.438095-7.314286-2.438095-12.190476-2.438095z" fill="#000088" p-id="5130"></path><path d="M763.12381 638.780952c-2.438095 0-7.314286 2.438095-7.314286 4.876191 4.87619 0 9.752381 2.438095 12.190476 2.438095 2.438095-4.87619 0-7.314286-4.87619-7.314286zM753.371429 514.438095c0-2.438095 0-2.438095 0 0V512l-26.819048-2.438095-80.457143 2.438095 80.457143 4.87619 26.819048-2.438095zM753.371429 509.561905c0 2.438095 0 2.438095 0 0v2.438095l12.190476-2.438095h-12.190476zM724.114286 631.466667c-2.438095 2.438095 0 7.314286 2.438095 9.752381s7.314286 0 9.752381-2.438096c-4.87619-2.438095-9.752381-4.87619-12.190476-7.314285z" fill="#000088" p-id="5131"></path><path d="M731.428571 629.028571c-2.438095-2.438095-7.314286 0-9.752381 2.438096 4.87619 2.438095 7.314286 2.438095 12.190477 4.87619 2.438095-2.438095 0-4.87619-2.438096-7.314286zM728.990476 494.933333l-78.019047-17.066666 75.580952 24.380952 26.819048 4.876191v-2.438096l-24.380953-9.752381zM755.809524 504.685714v2.438096l12.190476 2.438095-12.190476-4.876191zM694.857143 614.4c-2.438095 2.438095-2.438095 7.314286 2.438095 9.752381 2.438095 2.438095 7.314286 2.438095 9.752381-2.438095-7.314286-2.438095-9.752381-4.87619-12.190476-7.314286z" fill="#000088" p-id="5132"></path><path d="M702.171429 611.961905c-2.438095-2.438095-7.314286-2.438095-9.752381 0 2.438095 2.438095 7.314286 4.87619 9.752381 7.314285 4.87619 0 4.87619-4.87619 0-7.314285zM736.304762 480.304762l-70.704762-36.571429L731.428571 487.619048l24.380953 9.752381s0-2.438095 2.438095-2.438096l-21.942857-14.628571zM758.247619 497.371429s-2.438095 2.438095 0 0l9.752381 7.314285-9.752381-7.314285zM670.47619 587.580952c-2.438095 2.438095-2.438095 7.314286-2.438095 9.752381 2.438095 2.438095 7.314286 2.438095 9.752381 2.438096-2.438095-4.87619-4.87619-7.314286-7.314286-12.190477zM680.228571 590.019048c-2.438095-2.438095-7.314286-2.438095-9.752381-2.438096 2.438095 2.438095 4.87619 7.314286 7.314286 9.752381 2.438095-2.438095 4.87619-4.87619 2.438095-7.314285zM760.685714 494.933333c0-2.438095 0-2.438095 0 0l-14.628571-21.942857-60.952381-53.638095 53.638095 60.952381 21.942857 14.628571zM763.12381 492.495238c-2.438095 0-2.438095 0 0 0l7.314285 9.752381-7.314285-9.752381zM653.409524 555.885714c-2.438095 2.438095-4.87619 4.87619-2.438095 9.752381 2.438095 2.438095 4.87619 4.87619 9.752381 2.438095-2.438095-2.438095-4.87619-7.314286-7.314286-12.190476z" fill="#000088" p-id="5133"></path><path d="M663.161905 560.761905c-2.438095-2.438095-4.87619-4.87619-9.752381-2.438095 2.438095 4.87619 2.438095 7.314286 4.87619 12.190476 4.87619-2.438095 7.314286-7.314286 4.876191-9.752381zM758.247619 463.238095l-43.885714-65.828571 36.571428 70.704762 17.066667 21.942857s2.438095 0 2.438095-2.438095l-12.190476-24.380953z" fill="#000088" p-id="5134"></path><path d="M768 487.619048s-2.438095 2.438095 0 0l4.87619 9.752381-4.87619-9.752381zM646.095238 521.752381c-2.438095 0-7.314286 4.87619-4.87619 7.314286 0 2.438095 4.87619 7.314286 7.314285 4.87619 0-2.438095 0-7.314286-2.438095-12.190476z" fill="#000088" p-id="5135"></path><path d="M653.409524 529.066667c0-2.438095-4.87619-7.314286-7.314286-4.876191 0 4.87619 0 9.752381 2.438095 12.190476 4.87619 0 7.314286-4.87619 4.876191-7.314285zM770.438095 458.361905l-24.380952-75.580953 17.066667 78.019048 9.75238 24.380952h2.438096l-4.876191-26.819047z" fill="#000088" p-id="5136"></path><path d="M775.314286 485.180952h-2.438096l4.876191 9.752381-2.438095-9.752381zM648.533333 487.619048c-2.438095 0-7.314286 2.438095-7.314285 4.87619s2.438095 7.314286 4.87619 7.314286c2.438095-2.438095 2.438095-7.314286 2.438095-12.190476z" fill="#000088" p-id="5137"></path><path d="M653.409524 494.933333c0-2.438095-2.438095-7.314286-4.876191-7.314285 0 4.87619-2.438095 9.752381-2.438095 12.190476 4.87619 2.438095 7.314286 0 7.314286-4.876191zM777.752381 485.180952c2.438095 0 2.438095 0 0 0h2.438095l2.438095-26.819047-2.438095-80.457143-4.87619 80.457143 2.438095 26.819047zM782.628571 485.180952c-2.438095 0-2.438095 0 0 0H780.190476l2.438095 12.190477v-12.190477zM660.72381 455.92381c-2.438095-2.438095-7.314286 0-9.752381 2.438095s0 7.314286 2.438095 9.752381c2.438095-4.87619 4.87619-9.752381 7.314286-12.190476z" fill="#000088" p-id="5138"></path><path d="M663.161905 463.238095c2.438095-2.438095 0-7.314286-2.438095-9.752381-2.438095 4.87619-2.438095 7.314286-4.876191 12.190476 2.438095 2.438095 4.87619 0 7.314286-2.438095zM797.257143 460.8l17.066667-78.019048-24.380953 75.580953-4.87619 26.819047h2.438095l9.752381-24.380952zM787.504762 487.619048l-4.876191 12.190476 4.876191-12.190476zM677.790476 426.666667c-2.438095-2.438095-7.314286-2.438095-9.752381 2.438095-2.438095 2.438095-2.438095 7.314286 2.438095 9.752381 2.438095-7.314286 4.87619-9.752381 7.314286-12.190476z" fill="#000088" p-id="5139"></path><path d="M680.228571 433.980952c2.438095-2.438095 2.438095-7.314286 0-9.752381-2.438095 2.438095-4.87619 7.314286-7.314285 9.752381 0 4.87619 4.87619 4.87619 7.314285 0zM811.885714 468.114286l36.571429-70.704762-46.32381 65.828571-9.752381 24.380953s2.438095 0 2.438096 2.438095l17.066666-21.942857zM794.819048 490.057143s-2.438095-2.438095 0 0l-7.314286 9.752381 7.314286-9.752381zM704.609524 402.285714c-2.438095-2.438095-7.314286-2.438095-9.752381-2.438095-2.438095 2.438095-2.438095 7.314286-2.438095 9.752381 4.87619-2.438095 7.314286-4.87619 12.190476-7.314286zM702.171429 412.038095c2.438095-2.438095 2.438095-7.314286 2.438095-9.752381-2.438095 2.438095-7.314286 4.87619-9.752381 7.314286 2.438095 2.438095 4.87619 4.87619 7.314286 2.438095zM797.257143 492.495238c2.438095 0 2.438095 0 0 0l21.942857-14.628571 53.638095-60.952381-60.952381 53.638095-14.628571 21.942857z" fill="#000088" p-id="5140"></path><path d="M799.695238 494.933333c0-2.438095 0-2.438095 0 0l-9.752381 7.314286 9.752381-7.314286zM736.304762 385.219048c-2.438095-2.438095-4.87619-4.87619-9.752381-2.438096-2.438095 2.438095-4.87619 4.87619-2.438095 9.752381 2.438095-2.438095 7.314286-4.87619 12.190476-7.314285z" fill="#000088" p-id="5141"></path><path d="M731.428571 394.971429c2.438095-2.438095 4.87619-4.87619 2.438096-9.752381-4.87619 2.438095-7.314286 2.438095-12.190477 4.87619 2.438095 4.87619 7.314286 7.314286 9.752381 4.876191zM828.952381 490.057143l65.828571-43.885714-70.704762 36.571428-21.942857 17.066667s0 2.438095 2.438096 2.438095l24.380952-12.190476z" fill="#000088" p-id="5142"></path><path d="M804.571429 499.809524s-2.438095-2.438095 0 0l-9.752381 4.87619 9.752381-4.87619zM770.438095 377.904762c0-2.438095-4.87619-7.314286-7.314285-4.876191-2.438095 0-7.314286 4.87619-4.876191 7.314286 2.438095 0 7.314286 0 12.190476-2.438095z" fill="#000088" p-id="5143"></path><path d="M763.12381 385.219048c2.438095 0 7.314286-4.87619 4.87619-7.314286-4.87619 0-9.752381 0-12.190476 2.438095 0 4.87619 4.87619 7.314286 7.314286 4.876191zM833.828571 502.247619l75.580953-24.380952-78.019048 17.066666-24.380952 9.752381v2.438096l26.819047-4.876191zM807.009524 507.12381v-2.438096l-9.752381 4.876191 9.752381-2.438095zM804.571429 380.342857c0-2.438095-2.438095-7.314286-4.876191-7.314286s-7.314286 2.438095-7.314286 4.876191c2.438095 2.438095 7.314286 2.438095 12.190477 2.438095z" fill="#000088" p-id="5144"></path><path d="M797.257143 385.219048c2.438095 0 7.314286-2.438095 7.314286-4.876191-4.87619 0-9.752381-2.438095-12.190477-2.438095-2.438095 4.87619 0 7.314286 4.876191 7.314286zM807.009524 509.561905c0 2.438095 0 2.438095 0 0v2.438095l26.819047 2.438095 80.457143-4.87619-80.457143-4.876191-26.819047 4.876191zM807.009524 509.561905l-12.190476 2.438095 12.190476 2.438095v-4.87619c0 2.438095 0 2.438095 0 0zM836.266667 392.533333c2.438095-2.438095 0-7.314286-2.438096-9.752381-2.438095-2.438095-7.314286 0-9.752381 2.438096 4.87619 2.438095 9.752381 4.87619 12.190477 7.314285z" fill="#000088" p-id="5145"></path><path d="M828.952381 394.971429c2.438095 2.438095 7.314286 0 9.752381-2.438096-4.87619-2.438095-7.314286-2.438095-12.190476-4.87619-2.438095 2.438095 0 4.87619 2.438095 7.314286zM831.390476 529.066667l78.019048 17.066666-75.580953-24.380952-26.819047-4.876191v2.438096l24.380952 9.752381zM804.571429 519.314286v-2.438096l-12.190477-2.438095 12.190477 4.876191zM865.52381 409.6c2.438095-2.438095 2.438095-7.314286-2.438096-9.752381-2.438095-2.438095-7.314286-2.438095-9.752381 2.438095 7.314286 2.438095 9.752381 4.87619 12.190477 7.314286z" fill="#000088" p-id="5146"></path><path d="M858.209524 412.038095c2.438095 2.438095 7.314286 2.438095 9.752381 0-2.438095-2.438095-7.314286-4.87619-9.752381-7.314285-4.87619 0-4.87619 4.87619 0 7.314285zM824.07619 543.695238l70.704762 36.571429-65.828571-46.32381-24.380952-9.752381s0 2.438095-2.438096 2.438095l21.942857 17.066667z" fill="#000088" p-id="5147"></path><path d="M802.133333 526.628571s2.438095-2.438095 0 0l-9.752381-7.314285 9.752381 7.314285zM889.904762 436.419048c2.438095-2.438095 2.438095-7.314286 2.438095-9.752381-2.438095-2.438095-7.314286-2.438095-9.752381-2.438096 2.438095 4.87619 4.87619 7.314286 7.314286 12.190477zM880.152381 433.980952c2.438095 2.438095 7.314286 2.438095 9.752381 2.438096-2.438095-2.438095-4.87619-7.314286-7.314286-9.752381-2.438095 2.438095-4.87619 4.87619-2.438095 7.314285zM799.695238 529.066667c0 2.438095 0 2.438095 0 0l14.628572 21.942857 60.95238 53.638095-53.638095-60.952381-21.942857-14.628571z" fill="#000088" p-id="5148"></path><path d="M797.257143 531.504762c2.438095 0 2.438095 0 0 0l-7.314286-9.752381 7.314286 9.752381zM906.971429 468.114286c2.438095-2.438095 4.87619-4.87619 2.438095-9.752381-2.438095-2.438095-4.87619-4.87619-9.752381-2.438095 2.438095 2.438095 4.87619 7.314286 7.314286 12.190476z" fill="#000088" p-id="5149"></path><path d="M897.219048 463.238095c2.438095 2.438095 4.87619 4.87619 9.752381 2.438095-2.438095-4.87619-2.438095-7.314286-4.876191-12.190476-4.87619 2.438095-7.314286 7.314286-4.87619 9.752381zM802.133333 560.761905l43.885715 65.828571-36.571429-70.704762-17.066667-21.942857s-2.438095 0-2.438095 2.438095l12.190476 24.380953z" fill="#000088" p-id="5150"></path><path d="M792.380952 536.380952s2.438095-2.438095 0 0l-4.87619-9.752381 4.87619 9.752381zM914.285714 502.247619c2.438095 0 7.314286-4.87619 4.876191-7.314286 0-2.438095-4.87619-7.314286-7.314286-4.87619 0 2.438095 0 7.314286 2.438095 12.190476z" fill="#000088" p-id="5151"></path><path d="M906.971429 494.933333c0 2.438095 4.87619 7.314286 7.314285 4.876191 0-4.87619 0-9.752381-2.438095-12.190476-4.87619 0-7.314286 4.87619-4.87619 7.314285zM789.942857 565.638095l24.380953 75.580953-17.066667-78.019048-9.752381-24.380952h-2.438095l4.87619 26.819047zM785.066667 538.819048l-2.438096-9.752381 2.438096 9.752381z" fill="#000088" p-id="5152"></path></svg>