<?xml version="1.0" standalone="no"?><!DOCTYPE svg PUBLIC "-//W3C//DTD SVG 1.1//EN" "http://www.w3.org/Graphics/SVG/1.1/DTD/svg11.dtd"><svg t="1743472699738" class="icon" viewBox="0 0 1024 1024" version="1.1" xmlns="http://www.w3.org/2000/svg" p-id="1423" width="32" height="32" xmlns:xlink="http://www.w3.org/1999/xlink"><path d="M965.316923 727.276308l-319.015385-578.953846c-58.171077-106.299077-210.944-106.023385-268.996923 0l-318.621538 579.347692c-56.359385 102.636308 18.116923 227.643077 134.695385 227.643077h637.243076c116.184615 0 191.172923-124.416 134.695385-228.036923z m-453.316923 26.781538c-24.812308 0-44.504615-20.086154-44.504615-44.504615 0-24.812308 19.692308-44.898462 44.504615-44.898462a44.701538 44.701538 0 0 1 0 89.403077z m57.501538-361.156923l-20.873846 170.929231c-1.575385 19.298462-17.329231 33.870769-36.627692 33.870769s-35.446154-14.572308-37.021538-33.870769l-20.48-170.929231c-3.150769-33.870769 23.630769-63.015385 57.501538-63.015385 29.932308 0 57.501538 21.582769 57.501538 63.015385z" p-id="1424" fill="#FF5C5C"></path></svg>