<?xml version="1.0" standalone="no"?><!DOCTYPE svg PUBLIC "-//W3C//DTD SVG 1.1//EN" "http://www.w3.org/Graphics/SVG/1.1/DTD/svg11.dtd"><svg t="1762771713880" class="icon" viewBox="0 0 1642 1024" version="1.1" xmlns="http://www.w3.org/2000/svg" p-id="2960" xmlns:xlink="http://www.w3.org/1999/xlink" width="76.96875" height="48"><path d="M962.412189 667.611868l4.927025-14.781074h-73.905373l-4.927025 14.781074h64.051324c8.211708-0.821171 9.85405 0 9.854049 0m15.602246-46.806736l4.927025-18.065758h-74.726544l-10.675221 36.131516s14.781075-13.138733 39.416199-17.244587c5.748196-0.821171 41.05854-0.821171 41.058541-0.821171m144.526062-246.351243c13.959904-6.569366 23.813953-20.52927 27.919808-36.131515 4.105854-18.065758-1.642342-32.025662-15.602246-36.952687-0.821171 0-35.310345-3.284683-35.310344-3.284683l-6.569367-0.821171-0.821171 3.284683v4.105854l-16.423416 73.084203-0.821171 3.284683h9.032879c13.959904-0.821171 27.919808-0.821171 38.595028-6.569367M730.842021 477.100241c5.748196 0 10.675221-3.284683 15.602245-9.85405 6.569366-8.211708 10.675221-27.919808 12.317562-33.668003 5.748196-23.813953 4.927025-38.595028-8.211708-38.595028-16.423416 0-22.171612 19.708099-27.919807 43.522053-1.642342 8.211708-3.284683 15.602245-3.284683 22.992782-0.821171 15.602245 9.85405 15.602245 11.496391 15.602246m350.639936 289.873295h38.595028l11.496391-36.952686h-38.595028l-11.496391 36.952686z m160.949478-287.409783c5.748196 0 15.602245-4.105854 19.7081-9.85405 2.463512-3.284683 4.105854-7.390537 5.748196-12.317562 1.642342-6.569366 3.284683-13.959904 4.927024-20.52927 0.821171-4.927025 1.642342-9.032879 3.284684-13.138733 0.821171-16.423416-4.105854-25.456295-14.781075-25.456295-16.423416 0-22.992783 19.708099-27.919807 43.522053-1.642342 8.211708-3.284683 15.602245-3.284684 22.992782 0.821171 14.781075 10.675221 14.781075 12.317562 14.781075m-110.858059 122.354451l-12.317562 41.879711s13.959904-6.569366 22.171612-8.211708c8.211708-2.463512 19.708099-3.284683 19.708099-3.284683l9.032879-30.38332h-38.595028zM1556.118685 1.642342h-399.089014c-56.660786 0-113.321572 45.985565-127.281475 103.467522l-50.912591 219.252606c-6.569366-4.105854-18.886929-4.105854-24.635124-4.105854l50.91259-218.431436c9.85405-42.700882 41.05854-79.653569 78.832398-99.361668H709.49158c-56.660786 0-113.321572 45.985565-127.281476 103.467522l-49.270248 212.68324c-9.85405 0.821171-22.171612 1.642342-26.277466 2.463513l50.91259-219.252607c9.85405-42.700882 41.05854-79.653569 78.832398-99.361668H327.647153C270.986367 2.463512 214.325581 48.449078 200.365678 105.931034l-189.690457 812.959102c-13.138733 56.660786 22.171612 103.467522 78.832397 103.467522h316.150762c-8.211708-4.927025-14.781075-11.496391-20.52927-18.886928-18.886929-23.813953-24.635124-55.018444-17.244587-87.865277L451.643945 555.111468h26.277466L393.340818 919.711307c-13.138733 56.660786 22.171612 103.467522 78.832398 103.467522H854.017642c-7.390537-4.927025-14.781075-11.496391-20.52927-18.886928-18.886929-23.813953-24.635124-55.018444-17.244587-87.865277l14.781075-64.051323h26.277466l-15.602246 68.157177c-13.138733 56.660786 22.171612 103.467522 78.832398 103.467522h399.089014c56.660786 0 114.142743-45.985565 127.281475-103.467522l189.690457-812.959102c11.496391-59.124298-23.813953-105.931034-80.474739-105.931034m-289.873296 364.599839c8.211708 3.284683 13.959904 9.032879 18.065758 14.781075 0-1.642342 0.821171-4.105854 0.821171-5.748196l1.642341-1.642341c24.635124-3.284683 31.204491-4.105854 56.660786-9.032879l0.821171 2.463512c-4.927025 19.708099-9.032879 38.595028-13.959904 58.303128-9.032879 40.23737-13.138733 61.587811-16.423416 82.117081l-2.463513 1.642341c-24.635124 0-32.025662 0-54.197273 0.821171l-1.642342-1.642342c0.821171-2.463512 1.642342-5.748196 2.463513-8.211708-8.211708 6.569366-17.244587 11.496391-27.098637 12.317562-9.032879 0-18.065758-0.821171-28.740978-4.927024-32.025662-12.317562-26.277466-46.806736-22.171612-65.693665s11.496391-38.595028 27.098637-52.554932c22.171612-22.171612 47.627907-27.919808 59.124298-22.992783m-241.424218-22.992782l15.602245-73.905373s0.821171-5.748196 1.642342-9.032879c7.390537 0.821171 24.635124 0.821171 68.978348 0.821171h17.244587c34.489174 0 64.051323 0.821171 79.653568 21.350441 5.748196 8.211708 8.211708 18.065758 8.211709 27.919807 0 7.390537-0.821171 15.602245-2.463513 22.171612-5.748196 26.277466-19.708099 48.449078-40.23737 63.230152-29.562149 21.350441-67.336006 21.350441-100.182838 21.350441h-3.284684c-2.463512 1.642342-4.927025 4.927025-4.927025 4.927025-0.821171 0.821171-8.211708 33.668003-8.211708 33.668004s-9.032879 43.522053-10.67522 50.91259c-6.569366-0.821171-22.171612-0.821171-60.76664 0 0.821171-7.390537 39.416199-163.412991 39.416199-163.412991m-197.080995 112.500401c9.85405-45.164395 12.317562-61.587811 15.602246-84.580594l1.642341-1.642342c23.813953-3.284683 29.562149-4.105854 55.018445-9.032878l2.463512 2.463512-3.284683 13.959904c4.105854-2.463512 8.211708-4.927025 13.138733-7.390538 12.317562-5.748196 25.456295-7.390537 32.846832-7.390537 11.496391 0 23.813953 3.284683 28.740979 16.423416 4.927025 11.496391 1.642342 25.456295-4.927025 54.197274l-3.284684 13.959904c-6.569366 31.204491-7.390537 36.952686-11.496391 58.303127l-2.463512 1.642342c-20.52927 0-27.919808 0-51.733761 0.821171l-0.821171-1.642342c1.642342-9.032879 4.105854-18.065758 6.569366-27.098637l2.463513-12.317562c4.105854-19.708099 9.032879-41.879711 9.032879-48.449078 0-4.105854 1.642342-14.781075-9.85405-14.781074-4.927025 0-9.85405 2.463512-15.602245 4.927025-3.284683 9.85405-9.032879 39.416199-11.496392 52.554931-5.748196 27.919808-6.569366 31.204491-9.032879 44.343224l-1.642341 1.642342c-21.350441 0-27.919808 0-52.554932 0.821171l-0.821171-1.642342c4.105854-17.244587 8.211708-33.668003 11.496391-50.091419m20.529271 130.566158l-9.85405 32.025662h-72.263031l-8.211708 6.569366c-3.284683 3.284683-4.927025 1.642342-9.032879 4.105854s-13.138733 5.748196-23.813954 5.748196h-22.992782l9.032878-31.204491h7.390538c5.748196 0 9.85405-0.821171 12.317562-1.642341 2.463512-1.642342 4.927025-4.927025 8.211708-9.85405l13.138733-23.813954H804.747394l-9.032879 18.065758h52.554932zM394.161989 417.154771c-7.390537 25.456295-15.602245 55.018444-46.806736 73.905373-18.065758 10.675221-45.164395 17.244587-73.905373 17.244587-22.171612 0-61.587811-4.105854-75.547715-27.919807-4.105854-7.390537-6.569366-16.423416-6.569366-27.098637l4.927025-36.952686 2.463512-11.496392L229.106656 270.986367s1.642342-7.390537 1.642342-8.211708c0.821171 0.821171 10.675221 1.642342 68.157177 0.821171v1.642342c-4.927025 15.602245-35.310345 134.672013-35.310345 134.672012l-5.748196 35.310345v5.748196c1.642342 17.244587 12.317562 27.098637 31.204491 27.098637 11.496391 0 21.350441-3.284683 30.38332-10.675221 14.781075-12.317562 19.708099-31.204491 25.456295-57.481957 0 0 27.919808-130.566159 29.562149-137.135525 4.105854 0.821171 16.423416 1.642342 58.303128 0.821171v1.642342c-4.927025 16.423416-36.131516 139.599038-36.131516 139.599037l-2.463512 12.317562z m167.518845 14.781075l-3.284683 13.959904c-6.569366 31.204491-7.390537 36.952686-11.496392 58.303127l-2.463512 1.642342c-20.52927 0-27.919808 0-51.733761 0.821171l-0.821171-1.642342c2.463512-9.032879 4.105854-18.065758 6.569367-27.098637l3.284683-12.317562c4.105854-19.708099 9.032879-41.879711 9.032879-48.449078 0.821171-4.105854 1.642342-14.781075-9.85405-14.781074-4.927025 0-9.85405 2.463512-15.602245 4.927025-3.284683 9.85405-9.032879 39.416199-11.496392 52.554932-5.748196 27.919808-6.569366 31.204491-9.032879 44.343223l-1.642341 1.642342c-21.350441 0-28.740978 0-52.554932 0.821171l-0.821171-1.642342 12.317562-49.270248c9.85405-45.164395 12.317562-61.587811 15.602246-84.580594l1.642341-1.642342c23.813953-3.284683 29.562149-4.105854 55.018445-9.032878l2.463512 2.463512-4.105854 13.959904c4.105854-2.463512 8.211708-4.927025 13.138733-7.390538 12.317562-5.748196 25.456295-7.390537 32.846832-7.390537 11.496391 0 23.813953 3.284683 28.740979 16.423416 4.105854 10.675221 0.821171 25.456295-5.748196 53.376103m85.401764-9.032879c-2.463512 9.85405-4.927025 19.708099-6.569366 29.562149-4.105854 20.52927-6.569366 27.919808-7.390538 33.668003-0.821171 4.927025-1.642342 8.211708-3.284683 18.886929l-0.821171 0.821171-0.82117 0.821171h-27.919808c-7.390537 0-15.602245 0.821171-27.098637 0.821171l-0.82117-0.821171-0.821171-0.821171c3.284683-11.496391 4.927025-16.423416 6.569366-20.52927 1.642342-4.105854 3.284683-8.211708 5.748196-20.529271 3.284683-15.602245 5.748196-27.098637 7.390537-36.131515 1.642342-9.032879 2.463512-17.244587 4.105854-26.277466l0.821171-0.821171 0.821171-0.821171c12.317562-1.642342 19.708099-3.284683 27.919807-4.105854s16.423416-2.463512 28.740979-4.927025l0.821171 0.821171v0.821171l-7.390538 29.562149m3.284683-41.879711c-13.959904 9.032879-33.668003 11.496391-45.164394 4.927025-11.496391-6.569366-9.85405-19.708099 4.105854-29.562149 13.959904-9.032879 33.668003-11.496391 45.164395-4.927025 10.675221 6.569366 9.032879 19.708099-4.105855 29.562149m18.065758 55.839615c4.105854-18.886929 11.496391-38.595028 27.098637-52.554932 22.171612-20.52927 50.091419-21.350441 61.587811-21.350441 19.708099 0 38.595028 4.105854 49.270248 18.065758 7.390537 9.032879 12.317562 23.813953 5.748196 55.018444-2.463512 9.032879-8.211708 32.846832-22.171612 47.627907-18.065758 18.886929-41.879711 25.456295-65.693665 25.456295-9.032879 0-22.992783-1.642342-32.846832-5.748196-32.846832-12.317562-27.919808-46.806736-22.992783-66.514835m110.85806 373.632718h-59.945469c-4.927025 0-8.211708-0.821171-13.959904-1.642341-4.927025-0.821171-7.390537-3.284683-9.85405-6.569367-2.463512-3.284683-5.748196-6.569366-3.284683-13.959903l17.244587-56.660786h-29.562149l9.854049-32.846833h29.56215l7.390537-26.277466h-29.562149l9.854049-31.20449H837.594226l-9.85405 31.20449h-51.733761l-8.211708 26.277466h53.376103L811.31676 730.842021h-53.376102l-13.138733 42.700882c-1.642342 4.927025 12.317562 5.748196 17.244587 5.748196l26.277466-4.105854-9.032879 35.310344z m106.752205 0h-34.489174c-10.675221 0-18.886929 0-24.635124-0.82117-4.927025-0.821171-10.675221 0-14.781075-3.284684-3.284683-3.284683-8.211708-6.569366-8.211708-10.67522 0-3.284683 1.642342-9.85405 4.105854-17.244587l63.230152-210.219728h45.164395l-6.569367 22.992783s13.959904-11.496391 24.635125-15.602245c9.85405-4.105854 32.846832-7.390537 32.846832-7.390538h73.084202l-24.635124 82.938252c-4.105854 13.959904-9.032879 22.992783-12.317562 27.919808-2.463512 4.105854-5.748196 8.211708-12.317562 11.496391s-11.496391 4.927025-17.244587 5.748196c-4.927025 0-12.317562 0.821171-22.171612 0.821171h-70.62069l-19.708099 65.693664c-1.642342 6.569366-2.463512 9.85405-1.642342 11.496392 0.821171 1.642342 3.284683 3.284683 6.569366 3.284683l31.204491-3.284683-11.496391 36.131515zM999.364876 722.630313c-1.642342 5.748196-3.284683 10.675221-8.211708 14.781074s-10.675221 8.211708-24.635125 8.211708l-25.456295 0.821171v22.992783c0 6.569366 1.642342 5.748196 2.463513 6.569366 0.821171 0.821171 2.463512 1.642342 3.284683 1.642342h8.211708l23.813953-1.642342-9.854049 32.846833h-27.919808c-18.886929 0-33.668003-0.821171-38.595028-4.105854-4.927025-2.463512-4.927025-6.569366-4.927025-13.138733l1.642342-87.865277h43.522053l-0.821171 18.065758h10.675221c3.284683 0 5.748196 0 7.390537-1.642342 1.642342-0.821171 2.463512-2.463512 3.284683-4.927025l4.105854-13.959903h34.489174l-2.463512 21.350441z m154.380112 87.865276h-46.806736l3.284683-10.67522h-96.076985l9.85405-31.204491h9.85405l50.091419-166.697674 9.85405-33.668004h48.449078l-4.927025 17.244587s13.138733-9.032879 24.635124-12.317562c9.85405-2.463512 59.945469-4.105854 76.368885-4.105854h50.912591l0.82117 18.886929c0 3.284683 2.463512 4.927025 8.211709 4.927025h10.67522l-9.85405 32.025661h-27.919807c-23.813953 1.642342-32.846832-8.211708-32.846833-20.52927l-0.82117-18.886929-4.927025 16.423417h-16.423416l-49.270249 164.234162h13.138733l-10.675221 33.668003h-13.138733l-2.463512 10.67522zM1366.428228 665.148356h-51.733761l-8.211708 25.456295h51.733761l-8.211708 27.919808h-55.839616l-9.854049 12.317562h22.171612l5.748195 35.310345c0.821171 3.284683 0.821171 5.748196 1.642342 7.390537 0.821171 1.642342 8.211708 1.642342 12.317562 1.642342h6.569367l-10.675221 34.489174h-17.244587c-2.463512 0-6.569366 0-12.317562-0.821171-4.927025 0-9.032879-3.284683-12.317562-4.927025-3.284683-1.642342-8.211708-5.748196-9.032879-12.317562l-5.748196-35.310345-25.456295 34.489174c-8.211708 10.675221-18.886929 19.708099-37.773857 19.708099h-35.310345l9.032879-30.38332h13.959904c4.105854 0 7.390537-1.642342 9.854049-3.284683 2.463512-0.821171 4.927025-2.463512 7.390538-6.569366l36.952686-52.554932h-49.270249l8.211709-27.919808h55.839615l8.211708-25.456295h-55.018445l9.85405-32.025661h153.558942l-9.032879 32.846832z m32.025661-97.719326l-2.463512 2.463512-19.7081 33.668003c-6.569366 11.496391-18.065758 20.52927-36.131515 20.529271l-32.025662-0.821171 9.032879-30.38332h6.569367c3.284683 0 5.748196 0 7.390537-0.821171s2.463512-1.642342 4.105854-3.284683l11.496391-18.065758c15.602245-23.813953 19.708099-34.489174 36.131516-61.587811-3.284683-30.38332-4.105854-40.23737-6.569367-59.945469-1.642342-12.317562-3.284683-23.813953-4.927024-36.131516-3.284683-24.635124-2.463512-21.350441-5.748196-36.952686v-2.463512l1.642342-1.642342c24.635124-3.284683 25.456295-4.105854 51.733761-9.032879l2.463512 2.463512 3.284683 68.157178v4.105854c13.959904-31.204491 13.138733-22.992783 31.204491-62.408982v-0.821171l1.642342-1.642341c22.992783-3.284683 27.919808-4.105854 53.376102-9.032879l1.642342 2.463512c0.821171-2.463512-101.00401 172.44587-114.142743 201.186849m-298.906174 141.241379s14.781075-7.390537 22.171611-9.85405c8.211708-1.642342 19.708099-3.284683 19.7081-3.284683l9.032879-30.38332h-38.595028l-12.317562 43.522053z" p-id="2961" fill="#94A3B8"></path></svg>