<?xml version="1.0" standalone="no"?><!DOCTYPE svg PUBLIC "-//W3C//DTD SVG 1.1//EN" "http://www.w3.org/Graphics/SVG/1.1/DTD/svg11.dtd"><svg t="1762771405664" class="icon" viewBox="0 0 3291 1024" version="1.1" xmlns="http://www.w3.org/2000/svg" p-id="27374" xmlns:xlink="http://www.w3.org/1999/xlink" width="154.265625" height="48"><path d="M1159.314286 994.742857H1426.285714L1594.514286 18.285714h-266.971429l-168.228571 976.457143z m969.142857-585.142857c-91.428571-43.885714-149.942857-76.8-149.942857-120.685714 0-40.228571 47.542857-84.114286 153.6-84.114286 87.771429 0 149.942857 18.285714 201.142857 36.571429l25.6 10.971428 36.571428-212.114286C2340.571429 21.942857 2256.457143 0 2154.057143 0c-263.314286 0-449.828571 131.657143-449.828572 321.828571 0 138.971429 131.657143 219.428571 234.057143 266.971429 102.4 47.542857 138.971429 76.8 138.971429 120.685714 0 65.828571-84.114286 95.085714-160.914286 95.085715-106.057143 0-164.571429-14.628571-252.342857-51.2l-32.914286-14.628572-36.571428 219.428572c62.171429 25.6 175.542857 51.2 296.228571 51.2 281.6 0 460.8-131.657143 464.457143-332.8 0-113.371429-73.142857-197.485714-226.742857-266.971429zM3075.657143 18.285714h-204.8c-62.171429 0-109.714286 18.285714-138.971429 80.457143L2333.257143 994.742857h281.6s47.542857-120.685714 54.857143-146.285714h340.114285c7.314286 32.914286 32.914286 146.285714 32.914286 146.285714H3291.428571L3075.657143 18.285714z m-329.142857 629.028572c21.942857-54.857143 106.057143-274.285714 106.057143-274.285715 0 3.657143 21.942857-54.857143 36.571428-95.085714l18.285714 84.114286s51.2 234.057143 62.171429 281.6h-223.085714v3.657143zM647.314286 548.571429l29.257143 135.314285L936.228571 18.285714h281.6L797.257143 994.742857h-281.6L281.6 146.285714C197.485714 98.742857 106.057143 62.171429 0 36.571429L3.657143 14.628571h427.885714c58.514286 3.657143 106.057143 21.942857 120.685714 84.114286L647.314286 548.571429z" p-id="27375" fill="#94A3B8"></path></svg>